<svg width="400" height="306" viewBox="0 0 400 306" fill="none" xmlns="http://www.w3.org/2000/svg">
<g clip-path="url(#clip0_2_61)">
<path d="M372.938 263.784L373.622 248.402C380.749 244.59 388.699 242.576 396.781 242.536C385.658 251.635 387.048 269.175 379.507 281.411C377.126 285.21 373.921 288.423 370.129 290.814C366.338 293.204 362.058 294.711 357.606 295.221L348.297 300.923C347.02 293.799 347.302 286.482 349.123 279.477C350.944 272.472 354.261 265.945 358.846 260.346C361.449 257.23 364.434 254.455 367.73 252.086C369.96 257.968 372.938 263.784 372.938 263.784Z" fill="#F2F2F2"/>
<path d="M231.784 304.753C227.043 304.415 225.807 305.351 218.634 304.753H205.483L207.194 273.264L227.897 281.565L330.778 284.092L330.718 284.266C330.671 284.401 326.103 297.769 329.674 302.832L329.822 303.041L329.533 303.044L235.155 303.91C234.125 303.92 232.807 304.825 231.784 304.753Z" fill="#F2F2F2"/>
<path d="M237.121 305.164C227.962 304.512 218.479 308.075 210.564 304.053L204.237 304.436L204.219 304.383C204.17 304.237 201.181 280.707 207.223 271.584L207.489 271.182L207.697 273.343L205.705 302.655L210.12 301.18C220.842 306.23 233.593 302.895 245.865 302.849L329.38 302.54C331.129 302.534 332.586 303.73 332.633 305.206L332.637 305.351L242.165 305.344C240.478 305.344 238.796 305.284 237.121 305.164Z" fill="#CCCCCC"/>
<path d="M324.977 290.442L230.995 288.573L230.899 288.537L208.694 280.211L209.114 279.09L231.223 287.382L325.001 289.246L324.977 290.442Z" fill="#E6E6E6"/>
<path d="M324.476 295.478L230.493 293.608L230.398 293.573L208.192 285.246L208.612 284.126L230.722 292.417L324.5 294.281L324.476 295.478Z" fill="#E6E6E6"/>
<path d="M323.974 300.513L229.992 298.644L229.896 298.608L207.691 290.281L208.111 289.16L230.22 297.452L323.998 299.317L323.974 300.513Z" fill="#E6E6E6"/>
<path d="M237.77 284.417C229.056 283.828 220.56 281.429 212.824 277.374L206.31 273.917L206.48 272.208C206.527 271.957 206.666 271.733 206.869 271.578C207.071 271.423 207.324 271.349 207.579 271.369L208.154 271.377L295.801 272.667C301.537 272.738 307.222 273.771 312.617 275.721L331.714 282.658L331.704 282.759C331.544 284.369 329.921 285.613 328.01 285.591L241.674 284.579C240.368 284.563 239.067 284.509 237.77 284.417Z" fill="#E6E6E6"/>
<path d="M331.531 283.028L331.511 283.027L226.406 280.617L226.333 280.584L207.383 271.803L207.576 271.51L208.151 271.517L226.582 280.061L330.712 282.446L331.547 282.466L331.531 283.028Z" fill="#CCCCCC"/>
<path d="M249.821 272.131L248.487 272.112L218.365 271.667L216.938 271.647C223.82 278.978 239.038 280.812 261.344 277.972L249.821 272.131Z" fill="#CCCCCC"/>
<path d="M334.509 96.7794L336.347 101.056L333.344 116.245L302.706 111.983L302.95 93.4618L303.565 89.4055L334.509 96.7794Z" fill="#FFB6B6"/>
<path d="M350.338 293.628H343.579L340.362 267.542H350.338V293.628Z" fill="#FFB6B6"/>
<path d="M330.232 302.457C330.233 303.223 330.537 303.958 331.079 304.5C331.62 305.041 332.354 305.346 333.12 305.347H345.98L348.196 300.768L349.057 305.347H353.904L352.542 288.993L350.338 288.865L342.936 288.424L341.743 288.349V292.982L331.48 300.076C331.095 300.343 330.78 300.698 330.563 301.113C330.346 301.528 330.232 301.989 330.232 302.457Z" fill="#2F2E41"/>
<path d="M287.862 263.724H281.103L277.127 225.319L289.827 224.56L287.862 263.724Z" fill="#FFB6B6"/>
<path d="M267.756 272.553C267.757 273.319 268.061 274.053 268.603 274.595C269.144 275.137 269.878 275.441 270.644 275.442H283.503L285.72 270.864L286.581 275.442H291.428L290.065 259.089L288.099 258.974L280.568 258.519L279.267 258.445V263.077L269.003 270.172C268.618 270.438 268.304 270.794 268.087 271.209C267.869 271.623 267.756 272.084 267.756 272.553Z" fill="#2F2E41"/>
<path d="M353.207 271.133H353.181L351.881 228.717C352.722 227.093 353.149 225.287 353.124 223.458C353.099 221.63 352.622 219.836 351.736 218.236L351.55 217.899L352.032 215.661C352.652 212.785 352.368 209.788 351.218 207.081L350.005 167.515C354.338 139.42 333.69 121.098 333.69 121.098L335.588 106.372L302.191 107.132L302.759 121.098L296.119 143.926C292.624 177.993 269.104 199.405 272.679 231.983C272.686 232.077 272.672 232.171 272.638 232.258C272.275 233.362 272.148 234.529 272.263 235.685C272.379 236.841 272.735 237.96 273.309 238.97C273.458 239.228 273.561 239.509 273.612 239.803C274.348 245.514 274.444 238.289 275.42 243.95L275.23 244.046C274.547 244.282 274.253 245.23 274.575 246.163C274.897 247.096 275.712 247.661 276.396 247.425L294.249 247.616C294.933 247.38 295.226 246.432 294.904 245.499C294.582 244.566 293.767 244.001 293.083 244.237L291.973 244.799L293.831 238.716L294.482 238.108C294.794 237.816 295.036 237.458 295.191 237.06C295.345 236.661 295.407 236.233 295.372 235.807C295.337 235.382 295.207 234.969 294.991 234.601C294.774 234.233 294.477 233.918 294.122 233.681L295.973 223.796L295.71 216.32L296.252 207.839L319.677 173.876L329.155 220.789L338.835 271.605C338.61 271.809 338.44 272.067 338.343 272.355C338.245 272.644 338.224 272.952 338.28 273.251C338.369 273.669 338.601 274.043 338.935 274.308C339.269 274.574 339.686 274.715 340.113 274.707H353.255C353.53 274.707 353.802 274.643 354.049 274.521C354.295 274.398 354.511 274.22 354.677 274.001C354.844 273.781 354.958 273.526 355.01 273.256C355.063 272.985 355.052 272.706 354.978 272.44C354.868 272.058 354.634 271.723 354.314 271.486C353.994 271.25 353.605 271.126 353.207 271.133Z" fill="#2F2E41"/>
<path d="M341.521 24.6056C341.522 27.3137 340.858 29.9806 339.589 32.3723C338.319 34.7639 336.482 36.8072 334.239 38.3227C331.996 39.8382 329.415 40.7796 326.724 41.0642C324.032 41.3489 321.312 40.9681 318.802 39.9553C316.292 38.9425 314.068 37.3286 312.327 35.2554C310.586 33.1821 309.38 30.7129 308.815 28.0645C308.25 25.416 308.344 22.6693 309.088 20.0655C309.831 17.4617 311.202 15.0804 313.081 13.1305L313.16 13.0512C313.292 12.9122 313.425 12.7732 313.564 12.6408C313.564 12.6409 313.565 12.6407 313.566 12.6404C313.567 12.64 313.568 12.6395 313.568 12.6389C313.569 12.6383 313.569 12.6376 313.57 12.6368C313.57 12.6359 313.57 12.6351 313.57 12.6342C313.76 12.4957 313.935 12.3383 314.093 12.1644C316.325 9.0435 318.856 6.42661 324.986 8.06148C333.811 10.4152 341.521 15.4666 341.521 24.6056Z" fill="#2F2E41"/>
<path d="M250.692 17.5232C250.654 18.4084 250.811 19.291 251.151 20.1089C251.492 20.9268 252.007 21.6601 252.661 22.2571C253.315 22.8541 254.093 23.3004 254.938 23.5644C255.783 23.8285 256.676 23.9039 257.553 23.7853L300.195 58.8015L306.709 47.3467L262.745 16.5289C262.448 15.0672 261.626 13.7651 260.434 12.8695C259.242 11.9739 257.763 11.5469 256.277 11.6694C254.791 11.792 253.402 12.4556 252.373 13.5345C251.343 14.6134 250.745 16.0326 250.692 17.5232V17.5232Z" fill="#FFB6B6"/>
<path d="M318.201 69.1281C318.201 69.1281 318.188 67.867 311.409 67.9155C302.995 67.9757 279.821 55.8885 281.848 44.5048C280.885 44.9399 279.805 45.0423 278.779 44.7959C277.752 44.5494 276.836 43.9681 276.175 43.1435L287.457 32.2752C290.997 32.5144 291.033 34.8847 290.73 36.2458L299.797 39.8506L323.412 53.4256L319.242 67.0613L318.201 69.1281Z" fill="#FFBA08"/>
<path d="M320.912 42.3064C328.57 42.3064 334.777 36.0953 334.777 28.4334C334.777 20.7716 328.57 14.5605 320.912 14.5605C313.255 14.5605 307.047 20.7716 307.047 28.4334C307.047 36.0953 313.255 42.3064 320.912 42.3064Z" fill="#FFB7B7"/>
<path d="M301.856 97.436C301.09 98.4588 300.699 99.7139 300.748 100.991C300.798 102.268 301.285 103.489 302.127 104.449C302.134 104.856 302.195 105.25 302.771 106.708C302.847 106.849 302.935 106.983 303.035 107.108C303.054 107.139 303.075 107.168 303.096 107.196C303.703 107.982 304.547 108.55 305.503 108.817L330.883 115.905L334.239 116.841L334.828 117.004L335.154 112.419C335.908 111.793 336.414 110.918 336.579 109.951C336.745 108.984 336.559 107.99 336.055 107.149L335.588 106.376L338.313 99.0436L338.577 98.3178L345.525 79.6043L345.532 78.3563L345.546 77.0676L345.614 68.0737C345.617 65.2391 344.963 62.4423 343.705 59.9028C342.447 57.3632 340.617 55.1499 338.36 53.4366C336.304 51.8649 333.935 50.7545 331.412 50.1809L331.358 50.1741L328.612 46.4775L317.474 47.5899L316.553 49.4823L315.434 51.7613L307.36 56.5702L304.601 62.9867L302.737 67.3276C299.849 69.4032 298.128 72.0688 297.633 75.2431C296.575 81.9851 301.293 88.7339 301.856 89.5071L301.998 97.2462L301.856 97.436Z" fill="#FFBA08"/>
<path d="M335.423 32.0703C335.297 32.0505 335.171 32.024 335.046 32.0041C332.883 31.6203 330.72 31.2431 328.564 30.8526L328.365 25.9622L325.753 30.3431C319.794 32.3217 314.218 31.2034 308.974 28.735C307.244 27.9133 305.565 26.9873 303.947 25.9623C303.414 17.6915 306.756 12.3966 312.975 12.9519C313.202 12.9722 313.365 12.7402 313.564 12.6408C313.564 12.6409 313.565 12.6407 313.566 12.6404C313.567 12.64 313.568 12.6395 313.568 12.6389C313.569 12.6383 313.569 12.6376 313.57 12.6368C313.57 12.636 313.57 12.6351 313.57 12.6342C313.907 12.4754 314.251 12.3232 314.595 12.1843C317.288 11.1314 320.224 10.8648 323.062 11.4154C325.9 11.9659 328.523 13.3111 330.627 15.2945C334.86 19.338 336.765 26.0152 335.423 32.0703Z" fill="#2F2E41"/>
<path d="M335.046 32.0041C335.046 32.0041 330.938 16.6644 313.332 13.1239C313.312 13.1174 313.246 13.0909 313.16 13.0512C313.107 13.0181 313.041 12.985 312.975 12.9519C313.173 12.8394 313.365 12.7402 313.564 12.6408C313.564 12.6409 313.565 12.6407 313.566 12.6404C313.567 12.64 313.568 12.6395 313.568 12.6389C313.569 12.6383 313.569 12.6376 313.57 12.6368C313.57 12.6359 313.57 12.6351 313.57 12.6342C313.742 12.4754 313.914 12.3166 314.093 12.1644L314.595 12.1843C314.595 12.1843 332.261 9.385 335.046 32.0041Z" fill="#FD6584"/>
<path d="M341.819 128.702C341.493 128.981 341.096 129.165 340.673 129.233C340.249 129.302 339.815 129.253 339.418 129.091C338.628 128.755 337.926 128.241 337.367 127.589C335.086 125.196 333.456 122.257 332.634 119.054L333.394 117.7C333.096 116.031 333.377 114.309 334.19 112.822C335.004 111.334 336.302 110.169 337.869 109.521C338.76 109.143 339.748 109.057 340.691 109.276C341.159 109.392 341.587 109.632 341.929 109.972C342.272 110.311 342.516 110.737 342.637 111.203C342.93 112.652 341.724 113.959 340.503 114.791C338.376 116.235 335.916 117.116 333.356 117.349C336.488 119.116 339.195 121.546 341.288 124.471C341.772 125.082 342.128 125.782 342.337 126.533C342.437 126.909 342.443 127.304 342.352 127.683C342.262 128.062 342.078 128.412 341.819 128.702Z" fill="#2F2E41"/>
<path d="M166.562 305.839H399.255C399.452 305.839 399.642 305.76 399.782 305.62C399.921 305.481 400 305.291 400 305.093C400 304.895 399.921 304.706 399.782 304.566C399.642 304.426 399.452 304.347 399.255 304.347H166.562C166.364 304.347 166.174 304.426 166.034 304.566C165.895 304.706 165.816 304.895 165.816 305.093C165.816 305.291 165.895 305.481 166.034 305.62C166.174 305.76 166.364 305.839 166.562 305.839Z" fill="#CCCCCC"/>
<path d="M228.36 114.097V114.487C227.522 113.504 226.667 112.53 225.82 111.556C225.464 111.149 225.109 110.743 224.753 110.336C223.246 108.625 221.73 106.919 220.207 105.219C218.674 103.525 217.142 101.831 215.592 100.145C215.22 99.7382 214.847 99.3316 214.466 98.925C214.161 98.5833 213.83 98.266 213.475 97.9761C213.118 97.6784 212.707 97.4513 212.265 97.3069C211.756 97.1657 211.219 97.1599 210.707 97.29C210.123 97.4256 209.564 97.6374 208.997 97.8152C208.412 98.0101 207.837 98.1964 207.253 98.3828C206.084 98.764 204.924 99.1453 203.756 99.5265C203.742 99.5322 203.727 99.5351 203.711 99.535C203.696 99.5349 203.681 99.5318 203.667 99.5259C203.653 99.52 203.641 99.5113 203.63 99.5005C203.619 99.4897 203.611 99.4769 203.605 99.4628L203.603 99.4586C203.597 99.4426 203.594 99.4253 203.595 99.4079C203.595 99.3906 203.6 99.3736 203.608 99.3583C203.616 99.3429 203.627 99.3295 203.641 99.319C203.655 99.3086 203.671 99.3013 203.688 99.2977C203.976 99.2046 204.272 99.1114 204.569 99.0181C205.746 98.6285 206.914 98.2473 208.091 97.8661C208.675 97.6712 209.259 97.4848 209.843 97.2985C210.385 97.0926 210.957 96.9781 211.537 96.9596C212.482 97.0277 213.369 97.4442 214.026 98.1287C214.39 98.4676 214.72 98.8233 215.05 99.1876C215.44 99.6112 215.829 100.035 216.219 100.458C217.785 102.17 219.34 103.886 220.884 105.609C222.433 107.337 223.969 109.068 225.49 110.802C225.6 110.929 225.71 111.056 225.82 111.183C226.675 112.149 227.513 113.123 228.36 114.097Z" fill="white"/>
<path d="M213.344 99.537C213.024 99.1247 212.598 98.8077 212.111 98.6202L211.63 98.6371C215.409 104.521 220.359 109.561 226.173 113.444C221.896 108.809 217.62 104.173 213.344 99.537Z" fill="white"/>
<path d="M292.205 160.68L273.025 57.9222C272.697 56.2283 271.803 54.6961 270.49 53.5771C269.178 52.458 267.524 51.8183 265.801 51.763C265.646 51.7595 265.49 51.7595 265.335 51.763L252.269 52.232L250.863 52.2837L244.342 52.5182L242.936 52.5665L238.741 52.7182L154.161 55.7564C154.033 55.7633 153.902 55.7633 153.775 55.7599L134.822 55.3633L127.808 55.2184L127.584 55.215L122.407 55.1047L77.2973 54.1666L65.3375 53.9149L59.4403 53.7942L58.0272 53.7631L51.3029 53.6252L49.8932 53.5941L43.0137 53.4527L41.604 53.4217L34.0455 53.2631L32.8599 53.2389L26.1183 53.0975L25.0533 53.0768H24.8982C23.1084 53.0841 21.3789 53.7243 20.0153 54.8842C18.6517 56.0442 17.7418 57.6491 17.4466 59.4154L0.0996431 166.046C-0.0765137 167.126 -0.015865 168.232 0.277374 169.286C0.570613 170.34 1.08942 171.318 1.79789 172.152C2.50636 172.986 3.38754 173.656 4.38038 174.115C5.37322 174.574 6.45399 174.812 7.54782 174.812H107.169C108.636 174.816 110.063 175.287 111.243 176.157L113.132 177.557C114.434 178.516 116.007 179.035 117.623 179.04C136.864 173.959 157.092 173.959 176.333 179.04C177.325 179.043 178.308 178.848 179.224 178.468C180.14 178.088 180.972 177.53 181.672 176.826C182.868 175.63 184.464 174.919 186.152 174.829L285.181 169.608C286.255 169.552 287.304 169.267 288.259 168.772C289.214 168.277 290.052 167.584 290.717 166.738C291.382 165.893 291.859 164.915 292.116 163.87C292.372 162.825 292.403 161.737 292.205 160.68V160.68Z" fill="#CCCCCC"/>
<path d="M265.067 144.656C264.94 148.138 263.436 151.427 260.886 153.8C258.336 156.173 254.949 157.436 251.468 157.311C245.718 157.108 238.856 157.006 231.408 157.162C207.085 157.682 176.528 161.031 158.147 173.077C155.837 174.594 153.107 175.344 150.347 175.218C150.144 175.206 149.946 175.194 149.743 175.176C146.881 174.915 144.184 173.719 142.068 171.773C131.942 162.503 108.719 151.277 55.5614 150.487C55.3403 150.487 55.1251 150.475 54.9099 150.463C53.1881 150.355 51.5046 149.908 49.9556 149.148C48.4066 148.388 47.0224 147.331 45.8821 146.035C44.7419 144.74 43.8679 143.233 43.3103 141.599C42.7526 139.966 42.5222 138.238 42.6321 136.516L47.8564 53.5547L48.6395 41.1204L50.0143 19.3678C50.1529 17.1772 51.1199 15.1215 52.7187 13.6185C54.3174 12.1154 56.4281 11.2778 58.6219 11.2757H58.6757L90.3446 11.4611C103.686 12.0651 114.737 13.7657 123.496 16.5628C126.488 17.4911 129.399 18.6633 132.199 20.0676C136.024 21.9231 139.461 24.4908 142.325 27.6335C144.109 29.641 146.543 30.956 149.199 31.3476C149.611 31.4092 150.026 31.4471 150.442 31.4612C152.892 31.5627 155.309 30.8705 157.334 29.4875C178.023 15.6178 220.182 14.5652 243.464 15.1633C246.72 15.2393 249.832 16.5253 252.192 18.7708C254.552 21.0163 255.993 24.0606 256.232 27.3105L257.177 39.685L258.115 52.0236L263.531 123.334L265.037 143.173C265.074 143.666 265.084 144.161 265.067 144.656Z" fill="#F2F2F2"/>
<path d="M63.4401 40.4684C82.5245 34.376 103.816 35.989 121.896 44.5718C127.054 47.008 131.926 50.0104 136.422 53.5238C137.694 54.5224 139.503 52.7361 138.218 51.7267C121.612 38.8393 100.747 32.7171 79.8147 34.5904C74.0237 35.1089 68.3066 36.2581 62.7648 38.0177C61.2134 38.5129 61.8765 40.9675 63.44 40.4684H63.4401Z" fill="#3F3D56"/>
<path d="M168.455 54.5097C186.199 45.1781 207.446 43.1432 226.738 48.4402C232.238 49.9467 237.554 52.0613 242.586 54.7448C244.027 55.5145 245.312 53.3214 243.868 52.5504C225.481 42.7337 203.41 40.474 183.331 45.9461C177.73 47.4754 172.312 49.611 167.173 52.3152C165.726 53.0765 167.008 55.2707 168.455 54.5097Z" fill="#3F3D56"/>
<path d="M168.455 71.4525C186.199 62.1209 207.446 60.086 226.738 65.383C232.238 66.8895 237.554 69.0041 242.586 71.6876C244.027 72.4573 245.312 70.2643 243.868 69.4932C225.481 59.6766 203.41 57.4168 183.331 62.8889C177.73 64.4182 172.312 66.5539 167.173 69.258C165.726 70.0192 167.008 72.2135 168.455 71.4525L168.455 71.4525Z" fill="#3F3D56"/>
<path d="M244.489 87.4864C244.503 87.2683 244.45 87.0512 244.338 86.8633C244.227 86.6754 244.061 86.5255 243.863 86.433C229.134 78.7158 212.433 75.5858 195.911 77.4458C195.807 77.4541 195.712 77.4707 195.6 77.479H195.596C195.494 77.4881 195.393 77.5034 195.293 77.5247C185.466 78.6562 175.932 81.5962 167.174 86.1966C166.983 86.3104 166.825 86.472 166.715 86.6654C166.605 86.8588 166.548 87.0774 166.548 87.2998V118.906C166.551 119.101 166.598 119.292 166.686 119.466C166.774 119.639 166.9 119.79 167.055 119.908C167.21 120.025 167.39 120.106 167.581 120.144C167.771 120.181 167.968 120.175 168.156 120.126C168.546 120.014 168.935 119.906 169.333 119.802C178.188 117.404 187.278 115.981 196.441 115.559C196.636 115.551 196.831 115.543 197.034 115.535C204.497 115.214 211.975 115.483 219.396 116.339C219.551 116.348 219.706 116.365 219.86 116.389C220.241 116.43 220.631 116.476 221.012 116.526C221.166 116.542 221.311 116.559 221.452 116.584C222.936 116.77 224.407 116.982 225.883 117.21C228.013 117.55 230.144 117.929 232.274 118.346C232.407 118.371 232.544 118.404 232.68 118.429C236.1 119.11 239.503 119.898 242.889 120.768C243.078 120.817 243.275 120.822 243.466 120.784C243.657 120.745 243.836 120.664 243.991 120.545C244.146 120.427 244.272 120.275 244.36 120.101C244.448 119.927 244.495 119.736 244.498 119.541V87.5362C244.499 87.5192 244.496 87.5021 244.489 87.4864Z" fill="#3F3D56"/>
<path d="M197.902 79.1693C196.971 78.7132 195.905 78.6195 194.909 78.9062C194.469 79.0712 194.067 79.322 193.724 79.644C193.382 79.966 193.107 80.3528 192.916 80.782C192.571 81.6048 192.349 82.4744 192.26 83.3622C192.207 83.7114 192.204 84.1521 192.554 84.3151C192.682 84.3614 192.819 84.3719 192.952 84.3456C193.085 84.3192 193.208 84.2571 193.308 84.1658C193.49 83.9871 193.639 83.7786 193.75 83.5495C194.359 82.6013 195.197 81.8219 196.187 81.2835C197.177 80.7451 198.286 80.4649 199.413 80.4689L200.35 80.8429C199.613 80.178 198.789 79.6151 197.902 79.1693Z" fill="#FF6582"/>
<path d="M208.051 86.4541C207.323 85.3822 206.461 84.2377 205.11 83.8877C203.547 83.4824 201.94 84.2876 200.577 85.0822C196.525 87.4434 192.601 90.0184 188.822 92.7962L188.826 92.8378L197.598 92.299C199.711 92.1693 201.896 92.0216 203.763 91.1316C204.433 90.711 205.183 90.4318 205.965 90.3112C206.45 90.3375 206.925 90.4597 207.363 90.6707C207.801 90.8817 208.192 91.1774 208.515 91.5407C212.558 95.3748 213.728 101.238 218.264 104.607C215.377 98.2783 211.961 92.2058 208.051 86.4541Z" fill="white"/>
<path d="M197.035 115.534C196.832 115.542 196.637 115.551 196.443 115.559C195.029 115.051 193.581 114.602 192.116 114.212C191.168 113.958 190.203 113.73 189.238 113.535C188.145 113.298 187.045 113.111 185.944 112.95C183.849 112.645 181.737 112.467 179.62 112.417C179.604 112.418 179.587 112.417 179.572 112.412C179.557 112.407 179.542 112.399 179.53 112.388C179.518 112.377 179.509 112.364 179.502 112.349C179.496 112.334 179.492 112.318 179.492 112.302C179.492 112.286 179.496 112.27 179.502 112.255C179.509 112.241 179.518 112.227 179.53 112.217C179.542 112.206 179.557 112.198 179.572 112.193C179.587 112.188 179.604 112.186 179.62 112.188C179.89 112.188 180.161 112.196 180.424 112.213C182.545 112.292 184.66 112.498 186.757 112.832C187.849 113.01 188.941 113.221 190.025 113.459C191.007 113.679 191.989 113.925 192.955 114.196C194.334 114.585 195.695 115.031 197.035 115.534Z" fill="white"/>
<path d="M221.453 116.584C221.309 116.559 221.165 116.542 221.013 116.525C220.429 116.042 219.836 115.585 219.218 115.136C218.447 114.577 217.652 114.052 216.839 113.56C215.039 112.467 213.16 111.51 211.217 110.697C208.146 109.417 204.966 108.414 201.717 107.698C198.011 106.886 194.259 106.297 190.482 105.936C186.706 105.546 182.913 105.309 179.12 105.072C178.959 105.063 178.951 104.826 179.12 104.835C179.594 104.869 180.068 104.894 180.551 104.928C184.386 105.165 188.222 105.436 192.032 105.868C195.809 106.273 199.557 106.924 203.25 107.817C206.403 108.594 209.48 109.651 212.445 110.976C214.15 111.743 215.802 112.623 217.389 113.611C218.396 114.246 219.37 114.924 220.301 115.644C220.691 115.949 221.081 116.254 221.453 116.584Z" fill="white"/>
<path d="M219.861 116.39C219.707 116.365 219.552 116.348 219.396 116.339C219.218 116.195 219.032 116.059 218.845 115.924C217.542 114.99 216.182 114.139 214.773 113.374C213.493 112.678 212.179 112.047 210.836 111.485C207.766 110.201 204.587 109.198 201.336 108.486C197.63 107.673 193.878 107.085 190.101 106.724C186.325 106.334 182.532 106.097 178.739 105.86C178.578 105.843 178.578 105.614 178.739 105.622C179.222 105.656 179.696 105.682 180.17 105.716C184.005 105.953 187.841 106.224 191.651 106.656C195.428 107.061 199.176 107.712 202.869 108.604C206.022 109.38 209.099 110.438 212.063 111.764C213.181 112.273 214.273 112.823 215.34 113.425C216.922 114.294 218.434 115.285 219.861 116.39Z" fill="white"/>
<path d="M232.68 118.431C232.544 118.406 232.409 118.372 232.273 118.347C232.121 118.186 231.977 118.016 231.833 117.847C231.105 117.008 230.385 116.161 229.674 115.305C226.872 111.968 224.213 108.528 221.707 105.021C219.557 102.022 217.516 98.9639 215.586 95.8464C214.663 94.3724 213.774 92.8814 212.902 91.3735C212.224 90.2045 211.564 89.0327 210.921 87.8579C210.734 87.5191 210.557 87.1802 210.379 86.8413C209.964 86.0449 209.549 85.2402 209.109 84.4524C208.63 83.4872 207.928 82.6506 207.06 82.0126C206.626 81.722 206.124 81.5498 205.603 81.5128C204.869 81.5155 204.148 81.7019 203.504 82.0549C198.767 84.2621 194.299 87.0049 190.186 90.2299C186.169 93.3558 182.537 96.9474 179.366 100.929C179.264 101.048 179.044 100.938 179.137 100.811C179.518 100.336 179.907 99.8618 180.297 99.3959C183.345 95.7885 186.777 92.5247 190.533 89.6623C190.541 89.6538 190.558 89.6453 190.567 89.6369C190.897 89.3743 191.227 89.1202 191.566 88.8745C193.663 87.3295 195.845 85.9041 198.102 84.6049C199.254 83.9356 200.43 83.3002 201.633 82.6988C201.929 82.5464 202.234 82.3938 202.539 82.2498C202.843 82.0974 203.148 81.9534 203.453 81.8093C204.056 81.5014 204.716 81.3199 205.392 81.2757C207.746 81.2417 208.956 83.6138 209.794 85.2148C210.057 85.7147 210.328 86.2145 210.59 86.7143C211.606 88.6034 212.665 90.4841 213.765 92.3393C214.434 93.4914 215.128 94.6351 215.831 95.7703C216.839 97.3883 217.872 98.9893 218.947 100.582C218.947 100.583 218.947 100.584 218.947 100.585C218.948 100.586 218.948 100.587 218.949 100.588C218.95 100.589 218.951 100.589 218.952 100.59C218.953 100.59 218.954 100.591 218.955 100.591H218.955C220.2 102.471 221.495 104.318 222.833 106.156C225.128 109.299 227.532 112.371 230.047 115.373C230.91 116.407 231.788 117.426 232.68 118.431Z" fill="white"/>
<path d="M202.474 81.0174L202.239 81.1199C201.703 80.2135 200.951 79.4537 200.05 78.9082C199.15 78.3626 198.128 78.0482 197.077 77.9927C193.611 77.7464 190.566 80.0577 190.289 83.1447C190.177 84.4158 190.544 85.6829 191.32 86.6961L191.102 86.8247C190.295 85.7696 189.912 84.45 190.029 83.1262C190.317 79.9115 193.488 77.5045 197.098 77.7611C198.193 77.8188 199.256 78.1462 200.194 78.7143C201.132 79.2824 201.915 80.0735 202.474 81.0174Z" fill="#FF6582"/>
<path d="M185.346 87.2631C184.436 86.8672 183.445 86.6936 182.455 86.7567C181.465 86.8197 180.504 87.1176 179.652 87.6257C182.763 88.1034 185.847 88.7444 188.891 89.5462C187.631 88.8884 186.645 87.8578 185.346 87.2631Z" fill="white"/>
<path d="M179.635 87.6229L179.292 87.8709C179.408 87.7841 179.528 87.7027 179.652 87.6257L179.635 87.6229Z" fill="white"/>
<path d="M189.951 89.0612C189.815 88.9256 189.679 88.7901 189.542 88.6545C188.488 87.5069 187.219 86.5778 185.806 85.9198C185.088 85.6169 184.316 85.4576 183.536 85.4511C182.73 85.47 181.933 85.6247 181.179 85.909C180.824 86.0352 180.477 86.1786 180.135 86.3312C179.745 86.5063 179.361 86.693 178.979 86.8812C178.262 87.2345 177.555 87.6032 176.857 87.9875C175.468 88.7521 174.122 89.5751 172.82 90.4565C172.145 90.9135 171.484 91.3856 170.836 91.8726C170.235 92.325 169.645 92.7896 169.067 93.2663C168.944 93.3677 168.759 93.2035 168.883 93.102C169.035 92.9757 169.189 92.8502 169.343 92.7263C169.778 92.3761 170.22 92.0327 170.669 91.696C171.487 91.0808 172.327 90.4895 173.188 89.9219C174.526 89.0388 175.911 88.2155 177.342 87.4522C178.057 87.071 178.782 86.7059 179.517 86.3568C179.738 86.2514 179.963 86.1484 180.19 86.0508C180.708 85.8181 181.243 85.6242 181.79 85.4705C182.575 85.2455 183.396 85.1737 184.208 85.259C184.985 85.3583 185.74 85.5907 186.438 85.9462C187.822 86.7224 189.071 87.7188 190.136 88.8962C190.247 89.0077 190.063 89.1727 189.951 89.0612Z" fill="white"/>
<path d="M63.4401 57.4112C82.5245 51.3189 103.816 52.9318 121.896 61.5146C127.054 63.9508 131.926 66.9532 136.422 70.4666C137.694 71.4653 139.503 69.6789 138.218 68.6695C121.612 55.7821 100.747 49.66 79.8147 51.5332C74.0237 52.0517 68.3066 53.2009 62.7648 54.9605C61.2134 55.4557 61.8765 57.9103 63.44 57.4112L63.4401 57.4112Z" fill="#3F3D56"/>
<path d="M63.4401 74.354C82.5245 68.2617 103.816 69.8746 121.896 78.4574C127.054 80.8936 131.926 83.8961 136.422 87.4094C137.694 88.4081 139.503 86.6218 138.218 85.6124C121.612 72.7249 100.747 66.6028 79.8147 68.476C74.0237 68.9945 68.3066 70.1438 62.7648 71.9034C61.2134 72.3986 61.8765 74.8531 63.44 74.354L63.4401 74.354Z" fill="#3F3D56"/>
<path d="M63.4401 91.2969C82.5245 85.2046 103.816 86.8175 121.896 95.4003C127.054 97.8365 131.926 100.839 136.422 104.352C137.694 105.351 139.503 103.565 138.218 102.555C121.612 89.6678 100.747 83.5456 79.8147 85.4189C74.0237 85.9374 68.3066 87.0866 62.7648 88.8462C61.2134 89.3414 61.8765 91.796 63.44 91.2969L63.4401 91.2969Z" fill="#3F3D56"/>
<path d="M63.4401 108.24C82.5245 102.147 103.816 103.76 121.896 112.343C127.054 114.779 131.926 117.782 136.422 121.295C137.694 122.294 139.503 120.507 138.218 119.498C121.612 106.611 100.747 100.488 79.8147 102.362C74.0237 102.88 68.3066 104.029 62.7648 105.789C61.2134 106.284 61.8765 108.739 63.44 108.24L63.4401 108.24Z" fill="#3F3D56"/>
<path d="M63.4401 125.183C82.5245 119.09 103.816 120.703 121.896 129.286C127.054 131.722 131.926 134.725 136.422 138.238C137.694 139.237 139.503 137.45 138.218 136.441C121.612 123.553 100.747 117.431 79.8147 119.305C74.0237 119.823 68.3066 120.972 62.7648 122.732C61.2134 123.227 61.8765 125.682 63.44 125.183H63.4401Z" fill="#3F3D56"/>
<path d="M132.199 20.0676V60.6959C132.199 61.5033 130.788 62.1791 128.888 62.3645C128.871 62.3636 128.855 62.3656 128.84 62.3705C128.523 62.3945 128.188 62.4124 127.847 62.4124C126.799 62.4317 125.757 62.2615 124.769 61.91C124.679 61.8741 124.59 61.8323 124.5 61.7964C124.416 61.7485 124.327 61.7067 124.243 61.6588C123.771 61.3777 123.496 61.0488 123.496 60.6959V16.5628C126.488 17.4911 129.399 18.6633 132.199 20.0676Z" fill="#FFBA08"/>
<path d="M150.441 29.4907H149.198V174.369H150.441V29.4907Z" fill="#E6E6E6"/>
<path d="M285.666 128.67C286.547 128.589 287.401 128.316 288.165 127.87C288.93 127.423 289.588 126.815 290.092 126.086C290.597 125.358 290.935 124.528 291.084 123.655C291.233 122.781 291.189 121.886 290.955 121.032L316.764 108.977L332.303 83.8278L320.089 78.894L309.607 99.1599L283.076 116.85C281.667 117.339 280.487 118.327 279.759 119.629C279.03 120.93 278.804 122.454 279.123 123.911C279.443 125.368 280.285 126.657 281.491 127.534C282.696 128.411 284.182 128.815 285.666 128.67V128.67Z" fill="#FFB6B6"/>
<path d="M341.887 59.7356C341.887 59.7356 344.929 60.7291 341.59 66.6324C338.918 71.3584 325.898 98.581 320.584 103.926C321.143 104.822 321.389 105.88 321.281 106.931C321.174 107.982 320.72 108.968 319.991 109.732L307.723 99.9919C307.489 96.4493 309.832 96.0978 311.221 96.2173L314.043 86.2092L323.886 61.5208L339.701 58.9785L341.887 59.7356Z" fill="#FFBA08"/>
<path d="M342.152 13.462C342.732 11.1155 346.94 9.38298 339.732 6.10706C337.983 5.31203 338.055 2.57409 336.576 1.34795C335.096 0.121803 332.929 -0.446653 331.209 0.410375C329.673 1.1757 328.808 2.90765 328.624 4.61442C328.535 6.33224 328.733 8.05279 329.21 9.70541L329.07 9.90969C331.926 12.0958 334.781 14.2818 337.636 16.4678C338.685 17.2711 340.057 18.1123 341.233 17.5095C342.564 16.8272 341.793 14.9147 342.152 13.462Z" fill="#2F2E41"/>
</g>
<defs>
<clipPath id="clip0_2_61">
<rect width="400" height="306" fill="white"/>
</clipPath>
</defs>
</svg>
