<svg width="53" height="67" viewBox="0 0 53 67" fill="none" xmlns="http://www.w3.org/2000/svg">
<path d="M27.3788 0L2 44L37.6061 43.6207L34.197 37.1724L12.9848 37.5517L27 13.2759L30.7879 18.9655H37.9848L27.3788 0Z" fill="#FFBA08"/>
<path d="M27.3788 25.0345L23.9697 31.1034H37.6061L44.803 43.6207H52L41.3939 25.0345H27.3788Z" fill="#FFBA08"/>
<path d="M0.416 63L3.872 52.952H5.392L8.768 63H7.456L6.608 60.424H2.608L1.728 63H0.416ZM2.928 59.448H6.288L4.608 54.472L2.928 59.448ZM10.8035 63V55.336H12.0515V63H10.8035ZM11.6675 59.544C11.6675 58.5733 11.7608 57.768 11.9475 57.128C12.1342 56.4827 12.4062 56.0027 12.7635 55.688C13.1262 55.368 13.5662 55.208 14.0835 55.208C14.2542 55.208 14.4088 55.2213 14.5475 55.248C14.6915 55.2693 14.8355 55.304 14.9795 55.352L14.8995 56.584C14.7502 56.536 14.5875 56.496 14.4115 56.464C14.2355 56.4267 14.0782 56.408 13.9395 56.408C13.4862 56.408 13.1208 56.5387 12.8435 56.8C12.5662 57.056 12.3635 57.4187 12.2355 57.888C12.1128 58.3573 12.0515 58.9093 12.0515 59.544H11.6675ZM18.9368 63.192C18.5208 63.192 18.1474 63.112 17.8168 62.952C17.4861 62.792 17.2248 62.552 17.0328 62.232C16.8408 61.912 16.7448 61.512 16.7448 61.032V53.224H17.9768V61C17.9768 61.7893 18.3448 62.184 19.0807 62.184C19.2994 62.184 19.5101 62.16 19.7128 62.112C19.9208 62.064 20.1528 61.992 20.4088 61.896L20.5848 62.792C20.3128 62.9093 20.0408 63.0053 19.7688 63.08C19.5021 63.1547 19.2248 63.192 18.9368 63.192ZM15.5128 56.216V55.352H20.3928V56.216H15.5128ZM23.3044 53.544C23.0484 53.544 22.8457 53.472 22.6964 53.328C22.547 53.1787 22.4724 52.984 22.4724 52.744C22.4724 52.5093 22.547 52.3227 22.6964 52.184C22.8457 52.0453 23.0484 51.976 23.3044 51.976C23.5604 51.976 23.763 52.0453 23.9124 52.184C24.0617 52.3227 24.1364 52.5093 24.1364 52.744C24.1364 52.984 24.0617 53.1787 23.9124 53.328C23.763 53.472 23.5604 53.544 23.3044 53.544ZM22.6804 63V55.336H23.9284V63H22.6804ZM30.118 63.192C29.3767 63.192 28.758 63.088 28.262 62.88C27.766 62.6667 27.39 62.376 27.134 62.008C26.878 61.6347 26.742 61.208 26.726 60.728H27.926C27.9527 61.2133 28.1473 61.5787 28.51 61.824C28.878 62.064 29.3767 62.184 30.006 62.184C30.3367 62.184 30.6407 62.1307 30.918 62.024C31.1953 61.9173 31.4167 61.7707 31.582 61.584C31.7473 61.3973 31.83 61.1867 31.83 60.952C31.83 60.6533 31.7207 60.4187 31.502 60.248C31.2833 60.0773 30.934 59.928 30.454 59.8L28.966 59.32C28.3207 59.1173 27.8247 58.84 27.478 58.488C27.1367 58.1307 26.966 57.704 26.966 57.208C26.966 56.5893 27.238 56.0933 27.782 55.72C28.326 55.3467 29.0407 55.16 29.926 55.16C30.8647 55.16 31.5927 55.352 32.11 55.736C32.6273 56.12 32.8967 56.6 32.918 57.176H31.686C31.638 56.84 31.4673 56.5867 31.174 56.416C30.8807 56.24 30.4647 56.152 29.926 56.152C29.4087 56.152 29.0033 56.2693 28.71 56.504C28.422 56.7333 28.278 56.9893 28.278 57.272C28.278 57.8 28.7313 58.1893 29.638 58.44L31.158 58.952C31.814 59.1493 32.3153 59.408 32.662 59.728C33.014 60.048 33.19 60.456 33.19 60.952C33.19 61.336 33.0647 61.6987 32.814 62.04C32.5633 62.3813 32.2087 62.6587 31.75 62.872C31.2913 63.0853 30.7473 63.192 30.118 63.192ZM40.5083 63L40.3483 61.32V58.04C40.3483 57.352 40.2016 56.8587 39.9083 56.56C39.6149 56.256 39.1749 56.104 38.5883 56.104C38.2576 56.104 37.9563 56.152 37.6843 56.248C37.4176 56.344 37.2043 56.4933 37.0443 56.696C36.8896 56.8933 36.8123 57.1493 36.8123 57.464H35.4203C35.4203 56.9093 35.5563 56.464 35.8283 56.128C36.1003 55.7867 36.4736 55.5413 36.9483 55.392C37.4283 55.2373 37.9749 55.16 38.5883 55.16C39.1749 55.16 39.6949 55.2587 40.1483 55.456C40.6016 55.6533 40.9563 55.968 41.2123 56.4C41.4683 56.8267 41.5963 57.384 41.5963 58.072V63H40.5083ZM37.9003 63.192C37.2709 63.192 36.7509 63.08 36.3403 62.856C35.9296 62.632 35.6229 62.3413 35.4203 61.984C35.2176 61.6267 35.1163 61.2507 35.1163 60.856C35.1163 60.3387 35.2443 59.9173 35.5003 59.592C35.7616 59.2667 36.1163 59.0293 36.5643 58.88C37.0123 58.7253 37.5163 58.648 38.0763 58.648C38.4763 58.648 38.8763 58.688 39.2763 58.768C39.6816 58.848 40.0763 58.9573 40.4603 59.096V59.88C40.1403 59.752 39.7776 59.6507 39.3723 59.576C38.9723 59.5013 38.6043 59.464 38.2682 59.464C37.7563 59.464 37.3243 59.5707 36.9723 59.784C36.6203 59.992 36.4443 60.3493 36.4443 60.856C36.4443 61.2293 36.5776 61.5493 36.8443 61.816C37.1163 62.0827 37.5483 62.216 38.1403 62.216C38.5563 62.216 38.9296 62.12 39.2603 61.928C39.5963 61.7307 39.8603 61.4853 40.0523 61.192C40.2496 60.8987 40.3483 60.6053 40.3483 60.312H40.6523C40.6523 60.824 40.5403 61.2987 40.3163 61.736C40.0976 62.1733 39.7829 62.5253 39.3723 62.792C38.9616 63.0587 38.4709 63.192 37.9003 63.192ZM50.0248 63V58.504C50.0248 57.7733 49.8488 57.2187 49.4968 56.84C49.1501 56.456 48.6754 56.264 48.0728 56.264C47.6141 56.264 47.2168 56.3893 46.8808 56.64C46.5448 56.8907 46.2861 57.2507 46.1048 57.72C45.9234 58.184 45.8328 58.7387 45.8328 59.384H45.3528C45.3528 58.4933 45.4701 57.7333 45.7048 57.104C45.9394 56.4747 46.2808 55.9947 46.7288 55.664C47.1821 55.328 47.7314 55.16 48.3768 55.16C48.9794 55.16 49.4941 55.296 49.9208 55.568C50.3528 55.8347 50.6834 56.2187 50.9128 56.72C51.1421 57.2213 51.2568 57.816 51.2568 58.504V63H50.0248ZM44.5848 63V55.352H45.6568L45.8328 57.112V63H44.5848Z" fill="white"/>
</svg>
